<svg width="102" height="89" viewBox="0 0 102 89" fill="none" xmlns="http://www.w3.org/2000/svg">
<path d="M48.3096 78.2967C48.3096 75.9063 48.3096 73.5159 48.3096 71.1255C48.3096 68.9394 48.2935 68.9512 46.0698 69.3373C45.2087 69.4863 44.8305 69.8737 44.8627 70.7447C44.9083 71.8331 44.8814 72.9242 44.8694 74.014C44.8573 75.2474 44.7969 75.2896 43.5912 75.03C41.5404 74.5872 39.648 74.8547 38.1485 76.4083C36.4169 78.2031 36.2922 80.4498 36.539 82.7335C36.8367 85.4296 38.5374 87.2415 41.2333 87.8107C43.162 88.2179 45.0719 87.9425 46.9872 87.6368C47.9408 87.4826 48.3284 87.0543 48.3083 86.0937C48.2774 83.4991 48.3056 80.8979 48.3096 78.2967ZM43.8259 85.1304C41.5887 85.3123 40.3105 84.2897 40.0584 82.0878C39.9859 81.4254 40.0007 80.7566 40.1026 80.098C40.4004 78.0766 42.2486 77.116 44.1693 77.9567C44.6695 78.1754 44.8519 78.5444 44.856 79.0359C44.864 79.9109 44.856 80.7872 44.856 81.6622H44.864C44.864 82.4686 44.864 83.2742 44.864 84.0789C44.868 84.7654 44.53 85.0725 43.8259 85.1304Z" fill="#2FBEC6"/>
<path d="M18.5424 79.0293C18.3452 76.6838 18.0515 74.3448 17.794 72.0031C17.7524 71.6197 17.7162 71.2323 17.2575 71.0517C15.8975 70.5128 14.2169 71.0992 13.5946 72.4182C12.3875 74.9707 11.2354 77.5456 10.0511 80.1086C9.93839 80.3537 9.90486 80.7358 9.57224 80.7477C9.23962 80.7595 9.20072 80.3721 9.09074 80.131C7.98423 77.7274 6.79054 75.3568 5.82083 72.9005C5.19179 71.3087 4.21136 70.7921 2.54958 70.9542C1.62011 71.0412 1.20835 71.3258 1.09837 72.2311C0.569928 76.639 0.237304 81.0534 0.0334377 85.4797C-0.0792253 87.8661 -0.0456946 87.8516 2.44765 87.762C3.21349 87.737 3.55952 87.4642 3.55282 86.6973C3.54343 85.6075 3.55282 84.5151 3.61854 83.4266C3.73656 81.2945 3.89349 79.1651 4.0437 76.9025C4.67676 77.1964 4.71432 77.618 4.86856 77.9567C5.84229 80.1481 6.82273 82.3382 7.7522 84.5454C8.08348 85.336 8.63338 85.5416 9.43275 85.5469C10.2536 85.5469 10.8598 85.4059 11.2166 84.5507C12.1796 82.2407 13.211 79.957 14.2236 77.6668C14.3323 77.4217 14.3443 76.9974 14.6769 77.0251C15.1155 77.0606 14.9935 77.5113 15.0096 77.7946C15.1678 80.6739 15.3516 83.5531 15.4307 86.435C15.4589 87.4563 15.8438 87.8463 16.839 87.7528C17.0871 87.7291 17.3393 87.7528 17.5901 87.7528C18.9461 87.7435 19.0802 87.621 19.0078 86.2954C18.8629 83.872 18.7435 81.4474 18.5424 79.0293Z" fill="#2FBEC6"/>
<path d="M100.372 86.6103C98.6915 86.5932 97.011 86.6195 95.3304 86.5958C94.244 86.5813 94.1233 86.3322 94.7161 85.4098C95.4895 84.2274 96.2786 83.0559 97.0834 81.8954C98.2717 80.1824 99.5928 78.5655 100.939 76.9684C101.249 76.6021 101.449 76.1778 101.264 75.7034C101.067 75.1974 100.583 75.2632 100.162 75.2619C98.088 75.2553 96.0144 75.2527 93.9409 75.2619C93.4889 75.2619 92.8893 75.2079 92.9148 75.8734C92.9376 76.4584 93.4996 76.3925 93.9154 76.4004C95.4162 76.4163 96.9184 76.4084 98.4206 76.4189C98.6982 76.4189 99.0389 76.3543 99.2079 76.6311C99.4252 76.9816 99.0925 77.2214 98.9142 77.4573C98.1269 78.5009 97.3208 79.5327 96.5174 80.5645C95.1604 82.3315 93.9169 84.1799 92.7941 86.099C92.0886 87.285 92.3703 87.7383 93.7906 87.7488C94.8274 87.7567 95.8642 87.7488 96.901 87.7488C98.045 87.7488 99.1905 87.7633 100.333 87.7422C100.805 87.733 101.485 87.8635 101.468 87.1361C101.452 86.497 100.811 86.6142 100.372 86.6103Z" fill="#2FBEC6"/>
<path d="M26.4798 82.5213C27.5528 82.491 28.6257 82.5134 29.6987 82.5134V82.5055H31.5255C34.0537 82.5055 34.1087 82.4699 33.8324 79.9412C33.6098 77.9013 32.7688 76.1764 30.7476 75.3291C28.4769 74.3751 26.2316 74.5095 24.2694 76.0749C21.9518 77.9198 21.5494 80.4762 22.043 83.167C22.7914 87.252 28.7827 89.6714 32.514 87.447C33.4448 86.891 32.8842 86.0529 32.7822 85.3387C32.6803 84.6244 32.1317 84.7338 31.6113 84.8445C30.3412 85.1173 29.063 85.2214 27.7754 84.9552C26.9613 84.7865 26.3001 84.3952 25.8467 83.7244C25.3344 82.972 25.5557 82.5477 26.4798 82.5213ZM25.9795 78.659C26.5535 77.8315 27.3636 77.4731 28.379 77.5838C29.3272 77.6826 29.9455 78.2084 30.3036 79.0504C30.6175 79.7844 30.4015 80.2113 29.5499 80.2271C29.0134 80.2364 28.4769 80.2271 27.9404 80.2271V80.239C27.5474 80.239 27.1544 80.2535 26.7628 80.239C26.3711 80.2245 25.9017 80.3339 25.6898 79.932C25.4591 79.4774 25.718 79.0385 25.9795 78.659Z" fill="#2FBEC6"/>
<path d="M57.4756 4.45322C57.9074 4.73521 58.1958 4.3557 58.4493 4.0579C59.1682 3.21586 59.9635 2.46739 61.0218 2.0523C62.7788 1.36312 64.509 1.46063 66.211 2.24601C66.5543 2.40414 66.9996 2.64133 67.2544 2.17221C67.5361 1.6583 67.0881 1.3908 66.7059 1.20895C65.7013 0.730609 64.6444 0.418305 63.5057 0.440706C61.0419 0.477603 58.9912 1.34599 57.5279 3.35818C57.2851 3.69288 56.9632 4.11983 57.4756 4.45322Z" fill="#2FBEC6"/>
<path d="M85.1465 13.8052C87.8812 15.9597 88.3654 18.6255 87.0376 21.7182C86.8954 22.0477 86.7372 22.4325 87.1717 22.6341C87.5862 22.8238 87.8249 22.4865 88.0328 22.1939C88.7597 21.1661 88.9287 19.9933 88.9435 18.3277C88.8871 16.4249 87.9483 14.4944 86.0545 13.0383C85.7151 12.7748 85.2833 12.5336 84.8983 12.9276C84.5603 13.2808 84.8594 13.5799 85.1465 13.8052Z" fill="#2FBEC6"/>
<path d="M83.3733 16.3867C84.6328 17.4896 84.8661 18.7981 84.221 20.299C84.0869 20.6219 84.0869 20.9487 84.4665 21.1042C84.846 21.2597 85.0646 20.9843 85.2484 20.7154C85.6615 20.1132 85.8278 19.4385 85.8265 18.524C85.7728 17.404 85.1626 16.3708 84.1486 15.5525C83.8495 15.3127 83.4927 15.1915 83.2097 15.5525C82.9509 15.8622 83.1172 16.1626 83.3733 16.3867Z" fill="#2FBEC6"/>
<path d="M63.491 3.59273C62.1994 3.56506 61.1157 4.00518 60.272 4.98031C59.9944 5.2992 59.6014 5.65235 60.0038 6.06612C60.433 6.50756 60.7535 6.06612 61.0768 5.80257C61.3634 5.54203 61.6742 5.30822 62.0049 5.10417C62.9116 4.57708 63.8491 4.68382 64.7946 5.02511C65.142 5.15029 65.5417 5.19773 65.7 4.76156C65.8341 4.38864 65.527 4.18703 65.2453 4.02231C64.7117 3.72362 64.1048 3.575 63.491 3.59273Z" fill="#2FBEC6"/>
<path d="M89.1755 86.6142C88.855 86.5945 88.5317 86.6037 88.2098 86.6024L83.8092 86.5932C83.0246 86.5932 82.8382 86.2835 83.2727 85.6207C83.8092 84.7931 84.3162 83.9392 84.8822 83.1249C86.2976 81.0524 87.8267 79.057 89.4626 77.1476C89.822 76.7299 90.1412 76.2779 89.928 75.7179C89.6973 75.1064 89.1004 75.2698 88.6243 75.2659C86.6205 75.2527 84.6167 75.2527 82.6129 75.2659C82.177 75.2659 81.5533 75.1341 81.5399 75.8088C81.5265 76.4835 82.1381 76.3925 82.5847 76.3991C84.0869 76.4176 85.5891 76.4084 87.0926 76.4189C87.3716 76.4189 87.7042 76.3728 87.8772 76.6482C88.1025 77.0027 87.7766 77.2372 87.5955 77.4744C86.5226 78.8831 85.4067 80.2562 84.3766 81.6912C83.3251 83.1539 82.2467 84.6073 81.4259 86.2176C80.825 87.4036 81.0396 87.7317 82.3527 87.7449C83.4257 87.7541 84.4986 87.7449 85.5716 87.7449V87.733C86.7881 87.733 88.0046 87.7409 89.2211 87.733C89.6235 87.733 90.0983 87.7106 90.1171 87.1967C90.1359 86.5826 89.594 86.6393 89.1755 86.6142Z" fill="#2FBEC6"/>
<path d="M78.2177 14.1584C76.0892 10.5267 72.7455 8.72796 70.3836 8.65944C64.6082 8.61332 61.1894 10.2816 59.0743 13.4547C56.8211 16.836 54.6979 20.3069 52.5305 23.7331C49.1184 29.1437 45.6754 34.5385 42.3237 39.9834C39.6251 44.3688 40.1777 49.794 43.5536 53.2926C48.9185 58.8561 57.6634 58.0364 61.7823 51.5294C67.2661 42.8693 72.7133 34.1876 78.1238 25.4843C80.4187 21.7868 80.4066 17.8928 78.2177 14.1584ZM69.0719 38.219C68.5635 39.0966 68.0458 39.1783 67.1754 38.642C62.0197 35.4675 56.8331 32.3432 51.6667 29.1885C51.2751 28.9487 50.6085 28.7444 50.9666 28.1014C51.3086 27.4886 51.5098 26.7138 52.3199 26.4423C52.5707 26.5741 52.7974 26.6822 53.0079 26.8113C58.2128 29.9739 63.4168 33.1404 68.6199 36.3109C69.7237 36.9842 69.7049 37.1239 69.0719 38.219Z" fill="#2FBEC6"/>
<path d="M77.0843 75.4108C76.0865 75.4398 76.47 76.5151 76.4593 77.145C76.4151 79.8134 76.4365 82.4845 76.4379 85.1542C76.4379 85.8289 76.356 86.4482 75.4896 86.5431C74.3898 86.663 73.2873 86.8145 72.1795 86.634C70.9348 86.4311 70.1033 85.7498 69.7465 84.5454C69.4326 83.4912 69.3669 82.4028 69.3589 81.3117C69.3455 79.5907 69.3508 77.8697 69.3374 76.1475C69.3374 75.6797 69.1738 75.2949 68.6091 75.3054C68.1008 75.3146 67.956 75.6704 67.9573 76.0961C67.964 78.7645 67.8057 81.4408 68.1665 84.0961C68.4777 86.3981 70.0523 87.7857 72.4303 87.9504C73.8319 88.0453 75.2066 87.8094 76.5881 87.5828C77.4572 87.4405 77.7952 86.9872 77.771 86.1333C77.7362 84.552 77.7603 82.9707 77.763 81.3894C77.763 79.9491 77.8099 78.5062 77.7402 77.0686C77.708 76.4729 78.164 75.3779 77.0843 75.4108Z" fill="#2FBEC6"/>
<path d="M61.8641 79.2006C61.1613 78.9213 61.2833 78.6287 61.8359 78.2861C62.8445 77.6602 63.3555 76.7246 63.4803 75.5768C63.7163 73.421 62.5414 71.899 60.1151 71.256C58.0751 70.7144 56.0056 70.8093 53.928 71.0293C52.9744 71.1295 52.5573 71.5419 52.5801 72.5263C52.6311 74.777 52.5962 77.029 52.5989 79.2797V86.2453C52.5989 86.8791 52.6753 87.4615 53.4854 87.5814C56.0217 87.9544 58.5553 88.0374 61.0352 87.2744C62.9438 86.6867 64.1844 85.4546 64.3481 83.424C64.5036 81.4882 63.8102 79.9755 61.8641 79.2006ZM54.9796 72.1586C56.5126 72.0769 58.0483 72.0176 59.5545 72.3906C61.1747 72.7859 61.9835 73.8032 61.9419 75.3067C61.899 76.8656 61.0996 77.7999 59.474 78.1609C57.9611 78.4917 56.4214 78.3652 54.8897 78.352C54.321 78.352 54.0528 78.0397 54.0555 77.4849C54.0555 76.7141 54.0555 75.9432 54.0555 75.1723C54.0555 74.5134 54.0675 73.8414 54.0555 73.1759C54.0367 72.5447 54.313 72.1903 54.9796 72.1586ZM60.4679 86.1412C58.6438 86.7816 56.7406 86.6775 54.8481 86.5655C54.2902 86.5338 54.0434 86.1899 54.0501 85.6431C54.0581 84.7654 54.0501 83.8891 54.0501 83.0076H54.042C54.042 82.2354 54.0608 81.4632 54.0353 80.6923C54.0112 79.961 54.2902 79.5749 55.0828 79.5775C56.6534 79.5775 58.2253 79.5169 59.7865 79.7501C61.5744 80.0137 62.579 80.9361 62.748 82.4423C62.9572 84.295 62.237 85.5165 60.4679 86.1372V86.1412Z" fill="#2FBEC6"/>
</svg>
